<?xml version="1.0" standalone="no"?>
<!DOCTYPE svg PUBLIC "-//W3C//DTD SVG 20010904//EN"
 "http://www.w3.org/TR/2001/REC-SVG-20010904/DTD/svg10.dtd">
<svg version="1.0" xmlns="http://www.w3.org/2000/svg"
 width="512.000000pt" height="512.000000pt" viewBox="0 0 512.000000 512.000000"
 preserveAspectRatio="xMidYMid meet">

<g transform="translate(0.000000,512.000000) scale(0.100000,-0.100000)"
fill="#000000" stroke="none">
<path d="M1660 5069 c-509 -21 -984 -121 -1274 -268 -153 -78 -241 -153 -302
-257 -27 -45 -29 -56 -27 -139 1 -49 3 -103 4 -120 1 -16 -11 -59 -27 -95
l-29 -65 -3 -330 c-4 -367 0 -400 54 -509 l35 -69 -30 -57 c-56 -105 -61 -143
-61 -490 0 -346 5 -387 57 -483 l31 -57 -29 -53 c-54 -100 -59 -142 -59 -478
0 -168 5 -330 10 -360 55 -287 421 -545 966 -678 270 -66 478 -91 814 -98 267
-5 405 1 632 29 l96 12 73 -68 c208 -192 487 -325 794 -376 90 -15 320 -15
421 0 512 75 929 380 1164 850 44 88 106 279 124 386 104 604 -146 1190 -654
1531 -162 110 -373 195 -560 228 -52 9 -104 18 -115 21 -13 2 -31 27 -53 74
l-32 70 29 52 c60 107 62 132 59 515 l-3 348 -34 72 c-30 64 -32 75 -22 104
20 58 14 158 -14 218 -33 69 -139 175 -232 230 -370 219 -1073 340 -1803 310z
m725 -218 c433 -50 755 -135 959 -253 192 -112 226 -213 108 -320 -182 -164
-648 -297 -1188 -337 -178 -14 -580 -14 -755 -1 -521 40 -965 161 -1165 318
-127 100 -127 185 2 285 198 156 616 271 1149 317 129 11 772 4 890 -9z
m-1980 -1036 c785 -378 2495 -334 3100 81 l66 45 -3 -253 -3 -253 -28 -57
c-36 -73 -145 -176 -256 -242 -614 -363 -1866 -407 -2606 -91 -222 95 -381
214 -440 331 l-30 59 -3 253 -4 253 69 -46 c37 -26 100 -61 138 -80z m-166
-939 c47 -43 164 -117 266 -166 257 -125 619 -214 1010 -251 170 -16 557 -15
716 1 70 7 132 11 138 9 7 -3 -3 -26 -27 -59 -115 -163 -216 -414 -247 -616
-8 -53 -14 -54 -230 -54 -765 0 -1459 230 -1630 540 l-30 55 -3 283 c-2 155 0
282 4 282 4 0 19 -11 33 -24z m3611 -120 c461 -106 817 -447 929 -891 156
-616 -194 -1254 -797 -1455 -447 -149 -951 -19 -1272 328 -308 333 -406 784
-264 1212 140 419 500 731 940 815 98 18 367 13 464 -9z m-3611 -960 c90 -84
308 -196 507 -262 341 -112 696 -165 1117 -165 225 -1 227 -1 231 -22 52 -263
121 -444 226 -598 l40 -58 -33 -5 c-78 -13 -301 -26 -445 -26 -492 0 -955 89
-1278 244 -195 94 -317 194 -372 306 l-27 55 -3 278 c-2 152 0 277 4 277 5 0
19 -11 33 -24z"/>
<path d="M3355 2388 c-3 -7 -6 -132 -7 -278 l-3 -265 -280 -5 -280 -5 0 -260
0 -260 282 -3 283 -2 2 -283 3 -282 260 0 260 0 3 282 2 283 278 2 277 3 0
260 0 260 -277 3 -278 2 0 264 c0 146 -3 271 -6 280 -5 14 -38 16 -260 16
-195 0 -256 -3 -259 -12z"/>
</g>
</svg>
