<?xml version="1.0" standalone="no"?>
<!DOCTYPE svg PUBLIC "-//W3C//DTD SVG 20010904//EN"
 "http://www.w3.org/TR/2001/REC-SVG-20010904/DTD/svg10.dtd">
<svg version="1.0" xmlns="http://www.w3.org/2000/svg"
 width="512.000000pt" height="512.000000pt" viewBox="0 0 512.000000 512.000000"
 preserveAspectRatio="xMidYMid meet">

<g transform="translate(0.000000,512.000000) scale(0.100000,-0.100000)"
fill="#000000" stroke="none">
<path d="M1670 5069 c-704 -27 -1303 -199 -1520 -435 -74 -82 -95 -133 -94
-229 1 -44 3 -96 4 -115 2 -22 -7 -59 -26 -100 l-29 -65 -3 -330 c-4 -367 0
-404 55 -512 l33 -67 -34 -71 c-19 -38 -40 -90 -45 -115 -6 -26 -11 -181 -11
-360 0 -346 5 -387 57 -483 l31 -57 -29 -53 c-54 -100 -59 -142 -59 -478 0
-168 4 -331 10 -360 53 -286 423 -544 973 -678 264 -65 477 -91 802 -98 244
-5 441 4 623 29 74 10 83 13 79 30 -3 11 22 -9 56 -44 202 -206 505 -360 815
-413 110 -19 343 -21 452 -5 579 87 1051 483 1231 1031 211 642 -19 1327 -579
1722 -176 125 -447 230 -649 253 l-63 7 -35 72 -36 72 35 69 c54 109 58 142
54 509 l-3 330 -29 65 c-19 41 -28 78 -26 100 10 124 5 196 -18 242 -171 347
-1027 575 -2022 537z m581 -209 c443 -35 801 -115 1041 -236 304 -152 302
-300 -7 -453 -244 -120 -598 -199 -1043 -232 -186 -13 -697 -7 -857 11 -424
47 -755 134 -959 252 -199 116 -229 221 -95 331 197 161 637 284 1169 326 154
12 596 13 751 1z m-1848 -1044 c591 -284 1748 -345 2572 -137 218 55 409 132
528 215 l68 47 -3 -253 c-4 -295 -6 -306 -105 -409 -201 -210 -612 -361 -1160
-425 -204 -24 -632 -24 -836 0 -548 64 -959 215 -1160 425 -99 103 -101 114
-105 409 l-4 253 67 -45 c36 -25 98 -61 138 -80z m-164 -940 c46 -42 163 -115
266 -165 249 -122 583 -207 963 -247 185 -19 619 -20 790 -1 67 7 122 11 122
9 0 -2 -23 -39 -51 -81 -104 -154 -192 -372 -225 -553 l-16 -87 -46 -7 c-69
-10 -490 3 -617 20 -353 46 -624 121 -848 232 -170 85 -285 180 -342 284 l-30
55 -3 283 c-2 155 0 282 4 282 4 0 19 -11 33 -24z m3611 -120 c421 -97 743
-377 894 -780 66 -175 88 -439 52 -628 -138 -729 -875 -1167 -1577 -938 -513
168 -862 671 -835 1205 29 575 436 1042 1001 1149 99 19 368 14 465 -8z
m-3621 -950 c25 -30 166 -120 269 -171 339 -169 826 -265 1359 -267 259 0 236
7 248 -78 24 -160 113 -388 209 -532 l44 -68 -32 -5 c-72 -12 -311 -25 -450
-25 -779 0 -1491 237 -1643 548 l-28 57 -3 278 c-2 167 1 277 6 277 5 0 15 -6
21 -14z"/>
<path d="M2985 2190 l-139 -139 237 -233 c131 -128 238 -240 238 -248 0 -8
-108 -121 -240 -251 l-239 -236 139 -139 139 -139 232 238 c152 155 240 238
253 238 13 -1 103 -85 250 -235 l230 -235 138 133 c75 73 137 136 137 140 0 4
-106 112 -235 239 -130 128 -236 239 -236 247 0 8 107 120 238 248 l237 232
-139 140 -139 140 -237 -242 -236 -242 -31 22 c-17 13 -127 121 -244 242
l-214 219 -139 -139z"/>
</g>
</svg>
